<svg id="visual" viewBox="0 0 900 600" width="900" height="600" xmlns="http://www.w3.org/2000/svg" xmlns:xlink="http://www.w3.org/1999/xlink" version="1.1"><rect width="900" height="600" fill="#a8a8a8"></rect><g><g transform="translate(144 221)"><path d="M0 -71.4L61.9 -35.7L61.9 35.7L0 71.4L-61.9 35.7L-61.9 -35.7Z" fill="none" stroke="#fcfeff" stroke-width="2"></path></g><g transform="translate(50 565)"><path d="M0 -57L49.4 -28.5L49.4 28.5L0 57L-49.4 28.5L-49.4 -28.5Z" fill="none" stroke="#fcfeff" stroke-width="2"></path></g><g transform="translate(740 382)"><path d="M0 -60L52 -30L52 30L0 60L-52 30L-52 -30Z" fill="none" stroke="#fcfeff" stroke-width="2"></path></g><g transform="translate(448 174)"><path d="M0 -43L37.2 -21.5L37.2 21.5L0 43L-37.2 21.5L-37.2 -21.5Z" fill="none" stroke="#fcfeff" stroke-width="2"></path></g><g transform="translate(380 579)"><path d="M0 -34L29.4 -17L29.4 17L0 34L-29.4 17L-29.4 -17Z" fill="none" stroke="#fcfeff" stroke-width="2"></path></g><g transform="translate(28 409)"><path d="M0 -53L45.9 -26.5L45.9 26.5L0 53L-45.9 26.5L-45.9 -26.5Z" fill="none" stroke="#fcfeff" stroke-width="2"></path></g><g transform="translate(860 172)"><path d="M0 -31L26.8 -15.5L26.8 15.5L0 31L-26.8 15.5L-26.8 -15.5Z" fill="none" stroke="#fcfeff" stroke-width="2"></path></g><g transform="translate(553 598)"><path d="M0 -27L23.4 -13.5L23.4 13.5L0 27L-23.4 13.5L-23.4 -13.5Z" fill="none" stroke="#fcfeff" stroke-width="2"></path></g><g transform="translate(781 597)"><path d="M0 -50L43.3 -25L43.3 25L0 50L-43.3 25L-43.3 -25Z" fill="none" stroke="#fcfeff" stroke-width="2"></path></g><g transform="translate(73 69)"><path d="M0 -61L52.8 -30.5L52.8 30.5L0 61L-52.8 30.5L-52.8 -30.5Z" fill="none" stroke="#fcfeff" stroke-width="2"></path></g><g transform="translate(713 101)"><path d="M0 -63L54.6 -31.5L54.6 31.5L0 63L-54.6 31.5L-54.6 -31.5Z" fill="none" stroke="#fcfeff" stroke-width="2"></path></g><g transform="translate(363 344)"><path d="M0 -58L50.2 -29L50.2 29L0 58L-50.2 29L-50.2 -29Z" fill="none" stroke="#fcfeff" stroke-width="2"></path></g><g transform="translate(336 50)"><path d="M0 -45L39 -22.5L39 22.5L0 45L-39 22.5L-39 -22.5Z" fill="none" stroke="#fcfeff" stroke-width="2"></path></g><g transform="translate(252 443)"><path d="M0 -49L42.4 -24.5L42.4 24.5L0 49L-42.4 24.5L-42.4 -24.5Z" fill="none" stroke="#fcfeff" stroke-width="2"></path></g><g transform="translate(627 225)"><path d="M0 -29L25.1 -14.5L25.1 14.5L0 29L-25.1 14.5L-25.1 -14.5Z" fill="none" stroke="#fcfeff" stroke-width="2"></path></g><g transform="translate(552 55)"><path d="M0 -66L57.2 -33L57.2 33L0 66L-57.2 33L-57.2 -33Z" fill="none" stroke="#fcfeff" stroke-width="2"></path></g><g transform="translate(613 465)"><path d="M0 -66L57.2 -33L57.2 33L0 66L-57.2 33L-57.2 -33Z" fill="none" stroke="#fcfeff" stroke-width="2"></path></g><g transform="translate(472 438)"><path d="M0 -63L54.6 -31.5L54.6 31.5L0 63L-54.6 31.5L-54.6 -31.5Z" fill="none" stroke="#fcfeff" stroke-width="2"></path></g><g transform="translate(893 365)"><path d="M0 -42L36.4 -21L36.4 21L0 42L-36.4 21L-36.4 -21Z" fill="none" stroke="#fcfeff" stroke-width="2"></path></g><g transform="translate(305 197)"><path d="M0 -52L45 -26L45 26L0 52L-45 26L-45 -26Z" fill="none" stroke="#fcfeff" stroke-width="2"></path></g><g transform="translate(822 9)"><path d="M0 -59L51.1 -29.5L51.1 29.5L0 59L-51.1 29.5L-51.1 -29.5Z" fill="none" stroke="#fcfeff" stroke-width="2"></path></g></g></svg>