<svg id="visual" viewBox="0 0 900 600" width="900" height="600" xmlns="http://www.w3.org/2000/svg" xmlns:xlink="http://www.w3.org/1999/xlink" version="1.1"><g><g transform="translate(186 389)"><path d="M0 -103.3L89.5 -51.7L89.5 51.7L0 103.3L-89.5 51.7L-89.5 -51.7Z" fill="none" stroke="#888277" stroke-width="2"></path></g><g transform="translate(405 323)"><path d="M0 -67L58 -33.5L58 33.5L0 67L-58 33.5L-58 -33.5Z" fill="none" stroke="#888277" stroke-width="2"></path></g><g transform="translate(726 497)"><path d="M0 -80L69.3 -40L69.3 40L0 80L-69.3 40L-69.3 -40Z" fill="none" stroke="#888277" stroke-width="2"></path></g><g transform="translate(521 56)"><path d="M0 -53L45.9 -26.5L45.9 26.5L0 53L-45.9 26.5L-45.9 -26.5Z" fill="none" stroke="#888277" stroke-width="2"></path></g><g transform="translate(183 78)"><path d="M0 -84L72.7 -42L72.7 42L0 84L-72.7 42L-72.7 -42Z" fill="none" stroke="#888277" stroke-width="2"></path></g><g transform="translate(742 239)"><path d="M0 -82L71 -41L71 41L0 82L-71 41L-71 -41Z" fill="none" stroke="#888277" stroke-width="2"></path></g><g transform="translate(392 590)"><path d="M0 -65L56.3 -32.5L56.3 32.5L0 65L-56.3 32.5L-56.3 -32.5Z" fill="none" stroke="#888277" stroke-width="2"></path></g><g transform="translate(857 53)"><path d="M0 -99L85.7 -49.5L85.7 49.5L0 99L-85.7 49.5L-85.7 -49.5Z" stroke="#888277" fill="none" stroke-width="2"></path></g><g transform="translate(30 548)"><path d="M0 -67L58 -33.5L58 33.5L0 67L-58 33.5L-58 -33.5Z" stroke="#888277" fill="none" stroke-width="2"></path></g><g transform="translate(6 247)"><path d="M0 -80L69.3 -40L69.3 40L0 80L-69.3 40L-69.3 -40Z" stroke="#888277" fill="none" stroke-width="2"></path></g></g></svg>