<svg id="visual" viewBox="0 0 960 540" width="960" height="540" xmlns="http://www.w3.org/2000/svg" xmlns:xlink="http://www.w3.org/1999/xlink" version="1.1"><rect x="0" y="0" width="960" height="540" fill="#050b10"></rect><path d="M0 355L137 355L274 366L411 357L549 382L686 382L823 359L960 367L960 541L823 541L686 541L549 541L411 541L274 541L137 541L0 541Z" fill="#645d57"></path><path d="M0 393L137 413L274 392L411 385L549 413L686 399L823 407L960 385L960 541L823 541L686 541L549 541L411 541L274 541L137 541L0 541Z" fill="#66534a"></path><path d="M0 425L137 414L274 411L411 415L549 429L686 416L823 416L960 417L960 541L823 541L686 541L549 541L411 541L274 541L137 541L0 541Z" fill="#674843"></path><path d="M0 462L137 444L274 462L411 455L549 443L686 467L823 454L960 456L960 541L823 541L686 541L549 541L411 541L274 541L137 541L0 541Z" fill="#683c41"></path><path d="M0 483L137 488L274 484L411 476L549 474L686 479L823 468L960 471L960 541L823 541L686 541L549 541L411 541L274 541L137 541L0 541Z" fill="#643144"></path><path d="M0 506L137 510L274 500L411 520L549 498L686 506L823 505L960 497L960 541L823 541L686 541L549 541L411 541L274 541L137 541L0 541Z" fill="#5c284b"></path></svg>