<svg id="visual" viewBox="0 0 900 450" width="900" height="450" xmlns="http://www.w3.org/2000/svg" xmlns:xlink="http://www.w3.org/1999/xlink" version="1.1"><g stroke-width="1" stroke-linejoin="bevel"><path d="M536 288L541 155L370 153Z" fill="#dee8ee" stroke="#dee8ee"></path><path d="M370 153L368 299L536 288Z" fill="#d9e5eb" stroke="#d9e5eb"></path><path d="M541 155L536 0L370 153Z" fill="#beceda" stroke="#beceda"></path><path d="M536 0L358 0L370 153Z" fill="#d9e5eb" stroke="#d9e5eb"></path><path d="M191 450L347 450L368 299Z" fill="#bacad7" stroke="#bacad7"></path><path d="M368 299L528 450L536 288Z" fill="#cbd9e2" stroke="#cbd9e2"></path><path d="M168 160L368 299L370 153Z" fill="#dee8ee" stroke="#dee8ee"></path><path d="M368 299L347 450L528 450Z" fill="#beceda" stroke="#beceda"></path><path d="M728 296L541 155L536 288Z" fill="#d0dde5" stroke="#d0dde5"></path><path d="M728 296L714 136L541 155Z" fill="#cbd9e2" stroke="#cbd9e2"></path><path d="M541 155L714 136L536 0Z" fill="#d5e1e8" stroke="#d5e1e8"></path><path d="M708 450L728 296L536 288Z" fill="#e3ecf1" stroke="#e3ecf1"></path><path d="M176 0L168 160L370 153Z" fill="#d5e1e8" stroke="#d5e1e8"></path><path d="M168 160L166 287L368 299Z" fill="#c7d5df" stroke="#c7d5df"></path><path d="M528 450L708 450L536 288Z" fill="#dee8ee" stroke="#dee8ee"></path><path d="M714 136L729 0L536 0Z" fill="#e8f0f4" stroke="#e8f0f4"></path><path d="M900 139L729 0L714 136Z" fill="#cbd9e2" stroke="#cbd9e2"></path><path d="M166 287L191 450L368 299Z" fill="#dee8ee" stroke="#dee8ee"></path><path d="M358 0L176 0L370 153Z" fill="#c7d5df" stroke="#c7d5df"></path><path d="M900 313L900 139L728 296Z" fill="#c3d2dd" stroke="#c3d2dd"></path><path d="M728 296L900 139L714 136Z" fill="#dee8ee" stroke="#dee8ee"></path><path d="M900 450L900 313L728 296Z" fill="#beceda" stroke="#beceda"></path><path d="M176 0L0 137L168 160Z" fill="#beceda" stroke="#beceda"></path><path d="M168 160L0 137L166 287Z" fill="#e3ecf1" stroke="#e3ecf1"></path><path d="M166 287L0 450L191 450Z" fill="#d5e1e8" stroke="#d5e1e8"></path><path d="M0 137L0 309L166 287Z" fill="#d0dde5" stroke="#d0dde5"></path><path d="M900 139L900 0L729 0Z" fill="#c3d2dd" stroke="#c3d2dd"></path><path d="M708 450L900 450L728 296Z" fill="#e3ecf1" stroke="#e3ecf1"></path><path d="M176 0L0 0L0 137Z" fill="#c7d5df" stroke="#c7d5df"></path><path d="M0 309L0 450L166 287Z" fill="#c7d5df" stroke="#c7d5df"></path></g></svg>