<svg id="visual" viewBox="0 0 960 540" width="960" height="540" xmlns="http://www.w3.org/2000/svg" xmlns:xlink="http://www.w3.org/1999/xlink" version="1.1"><rect x="0" y="0" width="960" height="540" fill="#aeb8bf"></rect><defs><linearGradient id="grad1_0" x1="43.8%" y1="0%" x2="100%" y2="100%"><stop offset="14.444444444444446%" stop-color="#75644c" stop-opacity="1"></stop><stop offset="85.55555555555554%" stop-color="#75644c" stop-opacity="1"></stop></linearGradient></defs><defs><linearGradient id="grad1_1" x1="43.8%" y1="0%" x2="100%" y2="100%"><stop offset="14.444444444444446%" stop-color="#75644c" stop-opacity="1"></stop><stop offset="85.55555555555554%" stop-color="#757d66" stop-opacity="1"></stop></linearGradient></defs><defs><linearGradient id="grad1_2" x1="43.8%" y1="0%" x2="100%" y2="100%"><stop offset="14.444444444444446%" stop-color="#7c9388" stop-opacity="1"></stop><stop offset="85.55555555555554%" stop-color="#757d66" stop-opacity="1"></stop></linearGradient></defs><defs><linearGradient id="grad1_3" x1="43.8%" y1="0%" x2="100%" y2="100%"><stop offset="14.444444444444446%" stop-color="#7c9388" stop-opacity="1"></stop><stop offset="85.55555555555554%" stop-color="#90a6a7" stop-opacity="1"></stop></linearGradient></defs><defs><linearGradient id="grad1_4" x1="43.8%" y1="0%" x2="100%" y2="100%"><stop offset="14.444444444444446%" stop-color="#aeb8bf" stop-opacity="1"></stop><stop offset="85.55555555555554%" stop-color="#90a6a7" stop-opacity="1"></stop></linearGradient></defs><defs><linearGradient id="grad2_0" x1="0%" y1="0%" x2="56.3%" y2="100%"><stop offset="14.444444444444446%" stop-color="#75644c" stop-opacity="1"></stop><stop offset="85.55555555555554%" stop-color="#75644c" stop-opacity="1"></stop></linearGradient></defs><defs><linearGradient id="grad2_1" x1="0%" y1="0%" x2="56.3%" y2="100%"><stop offset="14.444444444444446%" stop-color="#757d66" stop-opacity="1"></stop><stop offset="85.55555555555554%" stop-color="#75644c" stop-opacity="1"></stop></linearGradient></defs><defs><linearGradient id="grad2_2" x1="0%" y1="0%" x2="56.3%" y2="100%"><stop offset="14.444444444444446%" stop-color="#757d66" stop-opacity="1"></stop><stop offset="85.55555555555554%" stop-color="#7c9388" stop-opacity="1"></stop></linearGradient></defs><defs><linearGradient id="grad2_3" x1="0%" y1="0%" x2="56.3%" y2="100%"><stop offset="14.444444444444446%" stop-color="#90a6a7" stop-opacity="1"></stop><stop offset="85.55555555555554%" stop-color="#7c9388" stop-opacity="1"></stop></linearGradient></defs><defs><linearGradient id="grad2_4" x1="0%" y1="0%" x2="56.3%" y2="100%"><stop offset="14.444444444444446%" stop-color="#90a6a7" stop-opacity="1"></stop><stop offset="85.55555555555554%" stop-color="#aeb8bf" stop-opacity="1"></stop></linearGradient></defs><g transform="translate(960, 0)"><path d="M0 324C-66.8 321.4 -133.6 318.8 -162 280.6C-190.4 242.4 -180.3 168.7 -200.9 116C-221.5 63.3 -272.8 31.7 -324 0L0 0Z" fill="#9eafb4"></path><path d="M0 259.2C-53.4 257.1 -106.9 255 -129.6 224.5C-152.3 193.9 -144.3 135 -160.7 92.8C-177.2 50.6 -218.2 25.3 -259.2 0L0 0Z" fill="#849d98"></path><path d="M0 194.4C-40.1 192.8 -80.2 191.3 -97.2 168.4C-114.2 145.5 -108.2 101.2 -120.6 69.6C-132.9 38 -163.7 19 -194.4 0L0 0Z" fill="#778876"></path><path d="M0 129.6C-26.7 128.6 -53.4 127.5 -64.8 112.2C-76.2 97 -72.1 67.5 -80.4 46.4C-88.6 25.3 -109.1 12.7 -129.6 0L0 0Z" fill="#757157"></path><path d="M0 64.8C-13.4 64.3 -26.7 63.8 -32.4 56.1C-38.1 48.5 -36.1 33.7 -40.2 23.2C-44.3 12.7 -54.6 6.3 -64.8 0L0 0Z" fill="#75644c"></path></g><g transform="translate(0, 540)"><path d="M0 -324C35.9 -280.1 71.8 -236.3 124 -214.8C176.2 -193.3 244.6 -194.1 280.6 -162C316.6 -129.9 320.3 -65 324 0L0 0Z" fill="#9eafb4"></path><path d="M0 -259.2C28.7 -224.1 57.5 -189 99.2 -171.8C140.9 -154.6 195.6 -155.3 224.5 -129.6C253.3 -103.9 256.3 -52 259.2 0L0 0Z" fill="#849d98"></path><path d="M0 -194.4C21.6 -168.1 43.1 -141.8 74.4 -128.9C105.7 -116 146.7 -116.4 168.4 -97.2C190 -78 192.2 -39 194.4 0L0 0Z" fill="#778876"></path><path d="M0 -129.6C14.4 -112.1 28.7 -94.5 49.6 -85.9C70.5 -77.3 97.8 -77.6 112.2 -64.8C126.7 -52 128.1 -26 129.6 0L0 0Z" fill="#757157"></path><path d="M0 -64.8C7.2 -56 14.4 -47.3 24.8 -43C35.2 -38.7 48.9 -38.8 56.1 -32.4C63.3 -26 64.1 -13 64.8 0L0 0Z" fill="#75644c"></path></g></svg>